<?xml version="1.0" encoding="UTF-8"?>
<svg xmlns="http://www.w3.org/2000/svg" xmlns:xlink="http://www.w3.org/1999/xlink" width="791.999983pt" height="611.999983pt" viewBox="0 0 791.999983 611.999983" version="1.2">
<g id="surface43768">
<rect x="0" y="0" width="791.999983" height="611.999983" style="fill:rgb(100%,100%,100%);fill-opacity:1;stroke:none;"/>
<path style="fill:none;stroke-width:1.704769;stroke-linecap:round;stroke-linejoin:round;stroke:rgb(0%,0%,0%);stroke-opacity:1;comp-op:src;clip-to-self:true;stroke-miterlimit:10;" d="M 20.261719 422.035156 L 766.261719 422.035156 "/>
<path style="fill:none;stroke-width:1.704769;stroke-linecap:round;stroke-linejoin:round;stroke:rgb(0%,0%,0%);stroke-opacity:1;comp-op:src;clip-to-self:true;stroke-miterlimit:10;" d="M 196.75 127.902344 L 196.390625 134.261719 L 195.324219 140.542969 L 193.5625 146.664062 L 191.125 152.546875 L 188.042969 158.125 L 184.355469 163.320312 L 180.109375 168.070312 L 175.359375 172.316406 L 170.164062 176 L 164.589844 179.082031 L 158.703125 181.519531 L 152.582031 183.285156 L 146.300781 184.351562 L 139.941406 184.707031 L 133.582031 184.351562 L 127.300781 183.285156 L 121.179688 181.519531 L 115.292969 179.082031 L 109.71875 176 L 104.523438 172.316406 L 99.773438 168.070312 L 95.527344 163.320312 L 91.84375 158.125 L 88.761719 152.546875 L 86.324219 146.664062 L 84.558594 140.542969 L 83.492188 134.261719 L 83.136719 127.902344 L 83.492188 121.539062 L 84.558594 115.261719 L 86.324219 109.140625 L 88.761719 103.253906 L 91.84375 97.679688 L 95.527344 92.484375 L 99.773438 87.734375 L 104.523438 83.488281 L 109.71875 79.800781 L 115.292969 76.71875 L 121.179688 74.28125 L 127.300781 72.519531 L 133.582031 71.453125 L 139.941406 71.09375 L 146.300781 71.453125 L 152.582031 72.519531 L 158.703125 74.28125 L 164.589844 76.71875 L 170.164062 79.800781 L 175.359375 83.488281 L 180.109375 87.734375 L 184.355469 92.484375 L 188.042969 97.679688 L 191.125 103.253906 L 193.5625 109.140625 L 195.324219 115.261719 L 196.390625 121.539062 L 196.75 127.902344 "/>
<path style="fill:none;stroke-width:1.704769;stroke-linecap:round;stroke-linejoin:round;stroke:rgb(0%,0%,0%);stroke-opacity:1;comp-op:src;clip-to-self:true;stroke-miterlimit:10;" d="M 160.109375 187.085938 L 168.640625 215.117188 "/>
<path style="fill:none;stroke-width:1.704769;stroke-linecap:round;stroke-linejoin:round;stroke:rgb(0%,0%,0%);stroke-opacity:1;comp-op:src;clip-to-self:true;stroke-miterlimit:10;" d="M 112.691406 186.921875 L 98.089844 222.867188 "/>
<path style="fill:none;stroke-width:1.704769;stroke-linecap:round;stroke-linejoin:round;stroke:rgb(0%,0%,0%);stroke-opacity:1;comp-op:src;clip-to-self:true;stroke-miterlimit:10;" d="M 77.089844 143.230469 L 40.996094 171.589844 "/>
<path style="fill:none;stroke-width:1.704769;stroke-linecap:round;stroke-linejoin:round;stroke:rgb(0%,0%,0%);stroke-opacity:1;comp-op:src;clip-to-self:true;stroke-miterlimit:10;" d="M 74.957031 95.574219 L 37.550781 70.84375 "/>
<path style="fill:none;stroke-width:1.704769;stroke-linecap:round;stroke-linejoin:round;stroke:rgb(0%,0%,0%);stroke-opacity:1;comp-op:src;clip-to-self:true;stroke-miterlimit:10;" d="M 99.40625 71.339844 L 87.097656 34.734375 "/>
<path style="fill:none;stroke-width:1.704769;stroke-linecap:round;stroke-linejoin:round;stroke:rgb(0%,0%,0%);stroke-opacity:1;comp-op:src;clip-to-self:true;stroke-miterlimit:10;" d="M 151.90625 56.003906 L 168.148438 23.355469 "/>
<path style="fill:none;stroke-width:1.704769;stroke-linecap:round;stroke-linejoin:round;stroke:rgb(0%,0%,0%);stroke-opacity:1;comp-op:src;clip-to-self:true;stroke-miterlimit:10;" d="M 194.234375 88.484375 L 227.867188 66.226562 "/>
<path style="fill:none;stroke-width:1.704769;stroke-linecap:round;stroke-linejoin:round;stroke:rgb(0%,0%,0%);stroke-opacity:1;comp-op:src;clip-to-self:true;stroke-miterlimit:10;" d="M 213.265625 153.617188 L 241.816406 162.851562 "/>
<path style="fill:none;stroke-width:17.047694;stroke-linecap:round;stroke-linejoin:round;stroke:rgb(100%,100%,0%);stroke-opacity:0.470588;comp-op:multiply;stroke-miterlimit:10;" d="M 112.46875 110.945312 L 112.46875 109.335938 L 112.824219 108.269531 L 113.710938 106.664062 L 114.777344 105.058594 L 117.261719 101.488281 L 117.972656 100.421875 L 118.859375 99.527344 L 119.746094 98.636719 L 120.8125 97.746094 L 121.699219 96.851562 L 122.589844 96.316406 L 121.875 97.566406 L 119.925781 100.242188 L 117.617188 103.097656 L 114.246094 106.664062 L 111.40625 110.230469 L 109.453125 113.082031 L 107.5 115.9375 L 105.015625 118.792969 L 102.886719 121.46875 L 101.289062 123.609375 L 100.046875 125.035156 L 99.335938 126.105469 L 98.804688 127.175781 L 99.871094 126.285156 L 102.53125 123.25 L 105.015625 120.21875 L 106.96875 117.363281 L 109.453125 113.976562 L 112.292969 110.054688 L 114.953125 107.019531 L 117.261719 103.632812 L 118.859375 100.597656 L 120.457031 98.277344 L 122.230469 96.316406 L 123.472656 94.714844 L 124.183594 93.640625 L 124.894531 92.75 L 125.25 92.214844 L 123.117188 93.464844 L 120.28125 95.605469 L 116.730469 98.636719 L 113.179688 101.847656 L 110.164062 104.878906 L 107.148438 108.269531 L 103.953125 111.480469 L 101.46875 114.15625 L 99.515625 115.9375 L 98.09375 117.363281 L 96.675781 118.613281 L 95.253906 119.863281 L 94.367188 120.574219 L 93.835938 120.929688 L 94.546875 117.902344 L 96.140625 113.441406 L 97.917969 109.160156 L 100.578125 104.878906 L 103.242188 100.597656 L 105.195312 97.566406 L 106.96875 95.070312 L 108.566406 91.859375 L 109.808594 89.539062 L 110.875 88.113281 L 111.9375 86.683594 L 112.292969 86.152344 L 113.003906 85.257812 L 112.117188 86.507812 L 110.519531 89.003906 L 108.566406 92.039062 L 105.726562 95.960938 L 102.53125 100.242188 L 99.691406 103.988281 L 97.5625 107.375 L 95.433594 110.945312 L 93.304688 113.796875 L 91.171875 115.9375 L 89.21875 117.902344 L 87.800781 119.148438 L 86.914062 120.21875 L 86.558594 120.753906 L 87.089844 120.398438 L 89.398438 118.792969 L 92.59375 115.9375 L 95.433594 112.371094 L 98.273438 109.160156 L 101.46875 106.128906 L 104.484375 103.097656 L 107.5 100.0625 L 110.695312 97.746094 L 113.710938 95.78125 L 116.019531 94.175781 L 118.152344 92.570312 L 120.28125 90.96875 L 121.875 89.71875 L 123.472656 88.648438 L 125.074219 87.757812 L 125.960938 87.222656 L 124.71875 89.71875 L 122.765625 92.570312 L 120.457031 96.140625 L 117.441406 100.597656 L 114.066406 104.878906 L 110.875 109.335938 L 107.5 114.332031 L 103.597656 119.683594 L 100.402344 124.320312 L 98.449219 127.175781 L 96.851562 129.496094 L 95.789062 131.097656 L 95.078125 131.992188 L 96.675781 129.316406 L 99.335938 124.855469 L 102.53125 120.039062 L 105.726562 114.691406 L 108.921875 109.515625 L 112.46875 104.523438 L 115.84375 100.0625 L 118.503906 96.496094 L 121.523438 92.570312 L 124.539062 88.648438 L 127.023438 85.972656 L 128.976562 84.011719 L 130.574219 82.046875 L 131.636719 80.445312 L 132.347656 79.550781 L 133.058594 78.660156 L 133.414062 78.125 L 134.125 77.410156 L 133.238281 79.730469 L 131.636719 82.40625 L 128.800781 86.152344 L 125.25 90.074219 L 122.054688 93.640625 L 118.683594 98.277344 L 114.425781 103.808594 L 110.339844 109.335938 L 106.789062 114.511719 L 103.0625 119.683594 L 100.402344 123.785156 L 98.984375 126.105469 L 97.917969 127.710938 L 96.675781 129.316406 L 95.609375 130.921875 L 94.898438 131.8125 L 94.367188 132.707031 L 95.964844 130.386719 L 98.804688 125.75 L 102 120.574219 L 105.015625 115.757812 L 107.5 111.480469 L 109.453125 108.625 L 110.875 107.199219 L 111.761719 106.308594 L 112.648438 105.414062 L 113.535156 104.878906 L 114.425781 104.878906 L 115.132812 105.59375 L 115.488281 107.734375 L 115.308594 111.121094 L 114.601562 114.332031 L 113.179688 118.257812 L 111.40625 122.894531 L 109.808594 126.820312 L 108.210938 131.457031 L 106.257812 136.09375 L 104.304688 139.660156 L 102.175781 143.40625 L 100.578125 146.4375 L 99.691406 148.042969 L 99.160156 149.113281 L 98.804688 149.648438 L 98.273438 150.539062 L 98.984375 148.042969 L 100.046875 145.367188 L 102.53125 140.375 L 103.597656 137.519531 L 104.660156 134.84375 L 105.546875 133.0625 L 106.257812 131.277344 L 106.789062 129.496094 L 107.148438 128.421875 L 107.148438 127.710938 L 105.902344 126.996094 L 104.839844 126.820312 L 102.886719 126.996094 L 100.933594 127.351562 L 99.871094 127.710938 L 98.804688 128.246094 L 97.03125 128.960938 L 95.433594 129.851562 L 94.011719 130.742188 L 92.59375 131.632812 L 91.707031 132.167969 L 90.820312 132.882812 L 90.285156 133.242188 L 89.929688 133.773438 L 89.398438 134.667969 L 89.042969 135.558594 L 88.863281 136.628906 L 89.042969 137.699219 L 89.21875 138.769531 L 89.578125 139.839844 L 89.929688 140.910156 L 90.285156 141.800781 L 90.820312 143.050781 L 91.527344 144.832031 L 92.0625 146.4375 L 92.414062 147.328125 L 92.949219 148.402344 L 93.480469 149.648438 L 94.191406 151.433594 L 95.253906 153.929688 L 95.964844 155.714844 L 96.675781 157.855469 L 97.5625 159.460938 L 98.625 160.886719 L 99.515625 161.597656 L 100.402344 162.3125 L 101.644531 163.027344 L 103.417969 163.917969 L 105.015625 164.453125 L 105.902344 164.808594 L 107.679688 164.988281 L 111.582031 164.988281 L 113.535156 164.808594 L 114.777344 164.632812 L 116.019531 164.453125 L 117.972656 164.097656 L 119.925781 163.917969 L 121.699219 163.5625 L 123.652344 163.027344 L 125.601562 162.667969 L 127.378906 162.132812 L 128.621094 161.777344 L 130.394531 160.707031 L 132.703125 159.28125 L 134.832031 157.496094 L 136.964844 155.714844 L 138.382812 154.464844 L 139.09375 153.394531 L 140.15625 151.96875 L 141.042969 150.539062 L 142.109375 148.9375 L 142.996094 147.328125 L 143.53125 146.4375 L 143.886719 145.367188 L 143.886719 144.300781 L 143.175781 143.585938 L 141.402344 143.585938 L 138.558594 144.65625 L 135.722656 146.617188 L 133.414062 148.578125 L 130.75 150.898438 L 124.71875 155.179688 L 122.589844 156.960938 L 121.523438 157.675781 L 119.925781 158.921875 L 118.152344 159.996094 L 117.085938 160.53125 L 115.84375 161.066406 L 114.601562 161.597656 L 113.535156 161.957031 L 112.648438 160.707031 L 112.46875 158.03125 L 112.824219 155.179688 L 113.890625 152.503906 L 115.308594 149.113281 L 116.910156 145.902344 L 118.152344 143.226562 L 119.570312 140.554688 L 121.523438 137.699219 L 123.472656 134.84375 L 125.074219 132.882812 L 126.316406 131.457031 L 127.378906 130.5625 L 128.800781 128.78125 L 128.265625 129.316406 L 125.425781 132.523438 L 122.410156 136.449219 L 119.570312 140.375 L 116.375 144.65625 L 113.890625 147.863281 L 111.9375 150.007812 L 109.984375 152.148438 L 108.210938 154.285156 L 107.148438 155.894531 L 106.613281 156.960938 L 108.921875 156.25 L 111.40625 155.179688 L 113.710938 153.929688 L 115.488281 152.859375 L 116.554688 152.148438 L 117.441406 151.253906 L 118.503906 150.363281 L 119.570312 149.472656 L 120.632812 148.578125 L 121.699219 148.042969 L 122.410156 148.222656 L 122.765625 149.292969 L 122.765625 151.96875 L 122.410156 155.535156 L 121.699219 158.03125 L 121.167969 159.996094 L 120.8125 161.242188 L 120.457031 163.207031 L 120.28125 165.167969 L 120.457031 166.414062 L 120.632812 167.664062 L 121.167969 169.449219 L 121.875 171.054688 L 122.589844 171.945312 L 125.425781 174.085938 L 127.203125 174.800781 L 128.800781 175.511719 L 130.574219 176.046875 L 133.058594 176.402344 L 138.738281 176.402344 L 140.691406 176.226562 L 143.351562 175.871094 L 146.015625 175.511719 L 148.5 175.15625 L 150.273438 174.621094 L 152.050781 174.085938 L 154 173.550781 L 155.953125 172.835938 L 158.4375 171.945312 L 160.035156 171.230469 L 161.632812 169.980469 L 163.054688 168.734375 L 164.472656 167.308594 L 166.25 165.523438 L 168.023438 163.742188 L 169.796875 161.957031 L 171.394531 159.996094 L 172.8125 157.675781 L 174.054688 155.355469 L 174.945312 152.859375 L 176.007812 149.648438 L 176.898438 146.796875 L 177.605469 144.300781 L 178.316406 141.445312 L 178.847656 138.589844 L 179.382812 135.558594 L 179.734375 132.707031 L 180.089844 129.851562 L 180.269531 126.460938 L 180.269531 119.683594 L 180.089844 116.117188 L 179.734375 113.261719 L 179.382812 109.695312 L 178.671875 106.308594 L 177.785156 102.917969 L 177.074219 99.707031 L 176.542969 97.03125 L 175.65625 94.355469 L 174.410156 91.144531 L 172.992188 88.292969 L 171.570312 85.972656 L 169.621094 84.011719 L 168.023438 82.761719 L 166.425781 81.691406 L 164.117188 80.265625 L 160.746094 79.730469 L 157.195312 79.910156 L 152.9375 80.800781 L 148.320312 81.871094 L 144.949219 83.117188 L 141.222656 85.082031 L 136.785156 88.113281 L 133.238281 91.144531 L 129.863281 93.820312 L 126.136719 97.210938 L 122.941406 101.132812 L 120.457031 104.34375 L 118.152344 107.910156 L 116.019531 111.65625 L 114.425781 114.691406 L 113.359375 117.363281 L 112.46875 120.574219 L 112.117188 123.785156 L 112.292969 125.75 L 112.648438 128.246094 L 113.710938 131.992188 L 115.132812 135.023438 L 116.554688 137.34375 L 118.152344 139.480469 L 120.457031 141.980469 L 123.652344 144.832031 L 126.492188 146.972656 L 128.800781 148.402344 L 131.816406 150.007812 L 135.011719 151.074219 L 137.671875 151.789062 L 140.15625 152.148438 L 142.820312 152.148438 L 146.546875 151.609375 L 149.921875 150.898438 L 152.582031 150.007812 L 155.777344 148.222656 L 159.328125 146.082031 L 162.164062 143.941406 L 164.472656 141.445312 L 167.492188 138.589844 L 170.328125 135.378906 L 172.8125 132.167969 L 174.589844 129.316406 L 176.363281 125.390625 L 178.316406 121.109375 L 179.914062 117.1875 L 181.332031 113.082031 L 182.574219 108.980469 L 183.640625 104.164062 L 184.351562 99.351562 L 184.703125 94.175781 L 185.0625 88.648438 L 184.882812 83.296875 L 184.527344 79.195312 L 183.640625 75.984375 L 182.398438 72.953125 L 181.332031 71.523438 L 179.914062 70.097656 L 178.316406 69.027344 L 176.1875 69.027344 L 171.925781 69.917969 L 168.199219 71.523438 L 165.003906 75.269531 L 160.570312 79.910156 L 156.308594 84.722656 L 152.050781 90.429688 L 147.433594 96.851562 L 143.707031 102.738281 L 141.042969 108.445312 L 138.027344 114.15625 L 135.011719 119.863281 L 132.527344 125.570312 L 130.394531 131.097656 L 128.265625 136.449219 L 126.492188 140.554688 L 124.894531 144.65625 L 123.832031 148.042969 L 123.117188 150.007812 L 122.765625 151.96875 L 122.589844 154.109375 L 122.589844 155.355469 L 122.941406 156.425781 L 123.832031 157.140625 L 125.074219 157.320312 L 126.847656 156.785156 L 129.152344 155.535156 L 131.636719 153.394531 L 134.480469 150.183594 L 137.316406 146.261719 L 139.625 142.335938 L 141.753906 138.234375 L 144.238281 133.953125 L 146.902344 130.03125 L 149.566406 125.570312 L 151.695312 121.289062 L 153.824219 116.828125 L 156.308594 112.015625 L 158.792969 107.554688 L 161.101562 103.097656 L 162.875 99.171875 L 163.585938 96.496094 L 164.296875 93.640625 L 165.003906 91.144531 L 165.359375 89.894531 L 165.539062 88.828125 L 163.585938 90.609375 L 160.214844 94 L 157.019531 98.460938 L 153.648438 103.632812 L 149.921875 108.980469 L 146.371094 114.511719 L 143.351562 120.574219 L 140.867188 126.820312 L 138.382812 132.882812 L 136.253906 138.234375 L 134.300781 142.871094 L 132.878906 146.796875 L 132.171875 148.757812 L 131.816406 150.007812 L 131.460938 151.074219 L 131.105469 151.609375 L 132.171875 149.292969 L 134.125 145.011719 L 136.074219 140.554688 L 138.027344 135.558594 L 139.800781 130.921875 L 140.867188 126.285156 L 141.753906 121.46875 L 142.820312 117.1875 L 144.0625 113.082031 L 144.949219 109.875 L 145.480469 107.734375 L 146.015625 105.769531 L 146.191406 103.988281 L 146.191406 102.917969 L 145.480469 102.5625 L 143.175781 103.988281 L 139.449219 107.019531 L 135.722656 111.121094 L 132.878906 114.691406 L 130.042969 118.4375 L 125.960938 123.25 L 122.589844 126.996094 L 120.28125 130.5625 L 118.152344 134.132812 L 116.375 136.628906 L 114.777344 138.769531 L 113.535156 140.015625 L 114.246094 139.839844 L 116.730469 136.984375 L 119.925781 132.882812 L 124.183594 128.246094 L 128.445312 122.714844 L 132.527344 117.1875 L 136.964844 112.015625 L 140.867188 107.375 L 145.128906 102.917969 L 149.566406 98.460938 L 153.292969 95.425781 L 156.484375 92.929688 L 159.148438 90.789062 L 160.746094 89.363281 L 161.8125 88.648438 L 162.875 88.113281 L 163.941406 87.757812 L 165.003906 87.933594 L 165.890625 88.828125 L 166.601562 90.609375 L 166.78125 93.285156 L 166.070312 98.101562 L 164.648438 103.453125 L 162.164062 109.160156 L 158.972656 115.9375 L 155.953125 122.179688 L 152.582031 129.671875 L 148.679688 136.808594 L 145.128906 143.226562 L 142.464844 148.9375 L 140.335938 153.75 L 138.382812 157.320312 L 137.316406 159.101562 L 136.609375 160.171875 L 135.898438 161.242188 L 136.785156 161.242188 L 139.449219 158.921875 L 142.820312 155 L 147.257812 149.828125 L 151.515625 143.941406 L 155.597656 138.054688 L 159.855469 132.347656 L 163.230469 127.175781 L 166.070312 122.179688 L 168.910156 117.902344 L 171.394531 114.332031 L 173.167969 111.300781 L 174.945312 108.625 L 175.476562 107.734375 L 175.832031 107.199219 L 175.121094 109.335938 L 172.8125 113.617188 L 169.441406 119.328125 L 166.601562 125.035156 L 163.761719 131.277344 L 160.214844 138.234375 L 157.019531 144.65625 L 154.179688 150.539062 L 151.871094 155.355469 L 150.097656 158.566406 L 148.5 160.707031 L 147.257812 162.132812 L 147.257812 160.351562 L 148.5 155.714844 L 150.097656 150.363281 L 152.050781 145.191406 L 154 139.839844 L 156.308594 134.667969 L 158.613281 129.671875 L 161.101562 124.855469 L 163.054688 120.574219 L 164.828125 117.1875 L 166.78125 114.332031 L 168.734375 112.191406 L 170.683594 110.410156 L 172.105469 109.335938 L 173.347656 108.804688 L 175.121094 108.089844 L 176.71875 107.734375 L 177.960938 107.554688 L 179.203125 107.734375 L 180.445312 107.910156 L 181.511719 108.445312 L 183.109375 109.695312 L 184.351562 110.945312 L 185.0625 111.835938 L 185.417969 112.726562 L 185.769531 113.976562 L 185.949219 115.9375 L 185.949219 118.613281 L 185.59375 121.46875 L 184.703125 124.140625 L 183.640625 126.820312 L 181.867188 130.03125 L 179.734375 133.417969 L 177.960938 136.269531 L 176.363281 138.589844 L 174.054688 141.265625 L 171.21875 144.121094 L 169.265625 145.726562 L 168.199219 146.4375 L 167.132812 147.152344 L 166.070312 147.863281 L 165.003906 148.222656 L 164.296875 147.6875 L 164.117188 145.546875 L 164.296875 142.691406 L 165.359375 139.125 L 167.492188 135.203125 L 170.152344 131.8125 L 175.832031 125.75 L 179.203125 122.714844 L 182.398438 120.039062 L 184.882812 118.078125 L 187.011719 116.472656 L 189.320312 114.867188 L 191.628906 113.617188 L 193.226562 112.90625 L 194.289062 112.371094 L 194.824219 112.015625 L 195.710938 112.371094 L 196.066406 112.90625 L 196.417969 114.867188 L 195.886719 118.96875 L 194.289062 124.140625 L 191.628906 129.671875 L 188.964844 135.203125 L 186.480469 140.730469 L 183.285156 146.082031 L 179.914062 150.71875 L 176.542969 155.179688 L 172.992188 158.921875 L 169.441406 161.777344 L 167.3125 163.5625 L 165.183594 165.167969 L 162.519531 166.773438 L 160.921875 167.488281 L 158.4375 168.199219 L 157.726562 168.199219 L 156.664062 167.84375 L 155.421875 166.59375 L 154.710938 164.988281 L 154.355469 163.207031 L 154.179688 161.066406 L 154.355469 158.03125 L 154.710938 155.179688 L 155.597656 152.503906 L 156.84375 149.828125 L 158.261719 147.152344 L 159.855469 144.65625 L 161.457031 142.15625 L 162.519531 139.839844 L 163.585938 137.34375 L 164.648438 134.667969 L 166.25 131.632812 L 168.199219 128.601562 L 169.976562 125.570312 L 172.105469 122.179688 L 173.703125 119.328125 L 174.589844 117.542969 L 175.121094 115.582031 L 175.832031 113.617188 L 176.363281 112.546875 L 176.1875 113.261719 L 174.765625 117.007812 L 172.460938 122.003906 L 169.976562 126.996094 L 167.492188 131.8125 L 165.359375 136.808594 L 162.875 141.800781 L 160.214844 145.726562 L 157.90625 148.402344 L 155.953125 150.183594 L 154.535156 151.433594 L 152.757812 152.324219 L 150.984375 152.859375 L 149.921875 153.039062 L 149.566406 151.789062 L 150.097656 148.402344 L 151.515625 144.476562 L 153.292969 140.015625 L 155.597656 135.023438 L 158.085938 129.851562 L 160.746094 124.5 L 163.230469 119.503906 L 165.359375 114.691406 L 167.84375 110.410156 L 170.152344 107.019531 L 172.636719 103.453125 L 174.410156 100.597656 L 175.296875 98.992188 L 176.542969 97.566406 L 177.605469 96.140625 L 176.898438 97.566406 L 174.945312 100.421875 L 172.28125 102.917969 L 169.621094 105.058594 L 167.84375 106.308594 L 166.78125 107.019531 L 165.359375 108.269531 L 164.117188 109.515625 L 163.585938 109.875 L 164.472656 108.804688 L 167.3125 105.59375 L 171.21875 101.847656 L 175.121094 98.101562 L 179.382812 94.535156 L 183.460938 90.609375 L 187.902344 86.683594 L 193.046875 82.582031 L 197.660156 78.660156 L 201.921875 75.449219 L 205.824219 72.773438 L 209.019531 70.277344 L 212.214844 67.601562 L 215.585938 65.28125 L 217.714844 63.675781 L 218.605469 62.785156 L 219.316406 61.894531 L 219.671875 61.359375 L 218.429688 61.894531 L 214.523438 64.570312 L 208.84375 68.671875 L 203.339844 71.882812 L 198.015625 75.089844 L 192.515625 79.195312 L 186.480469 84.011719 L 180.800781 88.828125 L 175.832031 92.75 L 171.570312 95.25 L 168.199219 97.746094 L 165.890625 99.886719 L 163.941406 101.488281 L 162.34375 102.382812 L 161.277344 102.738281 L 161.632812 100.597656 L 163.054688 97.566406 L 165.890625 92.929688 L 169.976562 87.757812 L 174.054688 82.941406 L 178.671875 77.589844 L 182.933594 73.128906 L 186.660156 68.671875 L 190.03125 64.214844 L 193.582031 60.109375 L 196.242188 56.363281 L 198.195312 53.867188 L 199.257812 52.4375 L 199.96875 51.371094 L 200.324219 50.835938 L 200.679688 49.765625 L 199.613281 49.230469 L 195.53125 49.050781 L 189.496094 51.191406 L 182.753906 55.472656 L 175.296875 60.109375 L 168.734375 64.746094 L 161.632812 69.5625 L 153.292969 75.628906 L 145.835938 82.226562 L 138.738281 88.648438 L 131.816406 95.070312 L 125.425781 100.777344 L 119.570312 105.414062 L 114.066406 109.875 L 109.632812 113.441406 L 106.789062 115.226562 L 104.128906 116.472656 L 102.175781 117.1875 L 100.933594 117.542969 L 100.046875 117.363281 L 99.160156 115.757812 L 99.160156 112.371094 L 101.113281 107.019531 L 104.304688 100.953125 L 108.03125 94.714844 L 112.648438 88.292969 L 117.617188 81.871094 L 122.589844 75.804688 L 127.734375 69.917969 L 133.058594 64.03125 L 138.027344 58.324219 L 142.285156 52.976562 L 146.015625 49.050781 L 149.566406 45.128906 L 151.515625 42.453125 L 152.582031 40.667969 L 153.648438 39.242188 L 153.292969 38.527344 L 149.921875 38.707031 L 143.707031 41.917969 L 136.253906 47.265625 L 128.265625 53.511719 L 120.632812 59.929688 L 113.710938 66.351562 L 105.195312 74.558594 L 97.207031 82.761719 L 90.285156 90.253906 L 83.007812 97.746094 L 76.972656 104.164062 L 71.472656 109.875 L 67.035156 114.511719 L 64.371094 117.542969 L 62.421875 120.398438 L 60.46875 122.359375 L 58.695312 123.609375 L 58.160156 123.964844 L 58.515625 122.714844 L 59.9375 118.792969 L 62.242188 112.90625 L 66.148438 105.769531 L 70.761719 98.460938 L 75.730469 90.789062 L 81.410156 82.40625 L 86.914062 74.914062 L 92.238281 67.957031 L 96.851562 60.644531 L 101.113281 54.402344 L 104.839844 49.050781 L 107.679688 44.589844 L 109.453125 41.738281 L 110.519531 40.308594 L 109.453125 39.953125 L 104.660156 42.808594 L 98.273438 48.335938 L 91.707031 54.757812 L 84.785156 61.894531 L 78.570312 68.671875 L 72.003906 75.984375 L 65.972656 82.941406 L 61 89.363281 L 55.851562 96.496094 L 51.417969 102.917969 L 47.15625 108.269531 L 43.785156 112.90625 L 41.65625 115.757812 L 39.703125 117.902344 L 38.460938 119.503906 L 39.523438 118.4375 L 43.074219 113.976562 L 47.867188 107.734375 L 52.660156 100.777344 L 57.808594 92.75 L 62.953125 84.546875 L 68.988281 76.699219 L 75.910156 67.957031 L 82.300781 59.039062 L 88.332031 50.835938 L 93.480469 44.054688 L 97.382812 38.882812 L 100.933594 34.425781 L 103.417969 31.394531 L 104.660156 29.964844 L 105.015625 29.429688 L 103.773438 31.75 L 100.578125 37.277344 L 95.609375 44.589844 L 89.753906 53.152344 L 83.542969 62.605469 L 76.621094 73.128906 L 69.699219 84.367188 L 63.664062 95.605469 L 57.808594 107.199219 L 51.59375 119.148438 L 46.625 130.5625 L 42.367188 140.375 L 39.347656 147.6875 L 37.574219 152.859375 L 36.332031 156.785156 L 35.976562 158.566406 L 35.976562 159.636719 L 36.332031 160.707031 L 37.75 161.777344 L 40.234375 162.492188 L 44.140625 161.957031 L 48.929688 159.816406 L 54.609375 155.535156 L 60.824219 149.648438 L 67.390625 143.226562 L 75.199219 135.558594 L 83.363281 126.460938 L 92.238281 117.007812 L 101.289062 107.375 L 110.875 97.566406 L 120.988281 87.933594 L 130.394531 78.480469 L 138.382812 69.742188 L 146.546875 62.25 L 154.179688 55.648438 L 160.214844 50.476562 L 164.828125 46.199219 L 168.554688 43.164062 L 170.507812 41.738281 L 170.507812 43.34375 L 168.378906 47.980469 L 163.40625 54.9375 L 156.132812 64.214844 L 147.964844 74.734375 L 139.980469 85.792969 L 131.996094 97.386719 L 123.652344 110.054688 L 115.132812 123.429688 L 107.324219 136.449219 L 100.757812 149.113281 L 95.078125 160.351562 L 90.640625 169.269531 L 86.914062 177.117188 L 84.25 183.183594 L 82.832031 187.285156 L 81.941406 189.960938 L 81.765625 191.207031 L 82.300781 192.101562 L 84.785156 191.921875 L 89.042969 189.601562 L 94.191406 184.609375 L 99.871094 178.007812 L 105.902344 169.980469 L 113.179688 159.996094 L 120.8125 149.648438 L 128.621094 138.945312 L 136.429688 127.886719 L 144.949219 117.007812 L 154 106.664062 L 161.632812 97.921875 L 168.910156 90.074219 L 175.65625 82.941406 L 180.976562 77.410156 L 184.527344 74.023438 L 186.660156 72.0625 L 188.253906 70.8125 L 188.789062 70.453125 L 187.902344 74.023438 L 184.703125 81.335938 L 179.203125 89.183594 L 172.8125 98.636719 L 166.25 108.980469 L 159.503906 120.039062 L 151.695312 132.707031 L 144.0625 146.261719 L 137.496094 160.53125 L 131.996094 174.085938 L 127.558594 185.144531 L 124.007812 192.8125 L 122.054688 197.09375 L 120.988281 199.589844 L 120.632812 200.839844 L 120.457031 201.910156 L 120.988281 202.800781 L 122.765625 202.980469 L 126.316406 201.554688 L 130.929688 198.878906 L 136.253906 194.0625 L 142.285156 187.464844 L 149.386719 179.972656 L 157.550781 170.515625 L 165.539062 160.351562 L 173.523438 150.183594 L 181.867188 140.195312 L 190.207031 130.921875 L 198.371094 122.359375 L 206.003906 113.796875 L 213.101562 105.769531 L 219.136719 99.707031 L 223.929688 95.25 L 227.65625 92.039062 L 230.140625 89.539062 L 231.207031 88.113281 L 231.5625 89.183594 L 229.785156 93.640625 L 224.992188 100.777344 L 218.605469 109.875 L 212.039062 120.21875 L 204.761719 131.457031 L 197.484375 143.40625 L 190.5625 155.894531 L 183.640625 169.625 L 177.074219 183.539062 L 171.039062 196.738281 L 166.25 208.6875 L 163.40625 218.5 L 160.746094 225.277344 L 159.148438 228.132812 L 158.4375 229.199219 L 159.855469 228.132812 L 163.585938 223.847656 L 168.378906 216.894531 L 173.703125 208.6875 L 179.558594 199.949219 L 185.417969 190.496094 L 191.980469 180.148438 L 198.902344 169.449219 L 205.472656 159.101562 L 212.214844 148.757812 L 218.960938 138.945312 L 225.171875 130.742188 L 230.851562 123.785156 L 235.464844 117.902344 L 239.371094 113.082031 L 242.210938 109.695312 L 244.164062 107.734375 L 245.582031 106.484375 L 243.453125 110.585938 L 238.835938 118.257812 L 233.515625 126.460938 L 227.835938 134.84375 L 221.800781 144.121094 L 215.765625 153.929688 L 210.085938 164.277344 L 204.582031 174.621094 L 199.257812 184.429688 L 194.46875 193.167969 L 190.386719 201.019531 L 187.367188 207.441406 L 184.882812 212.613281 L 183.285156 215.464844 L 182.574219 216.539062 L 182.21875 217.070312 L 182.933594 217.070312 L 186.125 215.644531 L 191.804688 211.542969 L 197.308594 206.191406 L 202.632812 200.304688 "/>
<path style="fill:none;stroke-width:17.047694;stroke-linecap:round;stroke-linejoin:round;stroke:rgb(0%,75.294118%,100%);stroke-opacity:0.470588;comp-op:multiply;stroke-miterlimit:10;" d="M 734.011719 348.28125 L 733.648438 347.1875 L 733.28125 344.996094 L 732.921875 343.535156 L 732.921875 338.789062 L 731.832031 339.519531 L 726.378906 342.441406 L 719.84375 347.554688 L 715.117188 354.492188 L 707.488281 364.347656 L 699.859375 372.378906 L 694.410156 379.316406 L 687.144531 386.621094 L 679.515625 392.828125 L 674.0625 397.9375 L 671.15625 400.863281 L 669.339844 402.320312 L 668.613281 403.050781 L 670.070312 400.496094 L 676.246094 392.464844 L 683.875 382.238281 L 690.050781 370.191406 L 699.496094 355.21875 L 708.941406 340.25 L 719.476562 324.183594 L 731.105469 307.023438 L 739.824219 290.589844 L 749.632812 273.429688 L 757.628906 259.925781 L 764.53125 249.699219 L 771.433594 239.109375 "/>
<path style="fill:none;stroke-width:17.047694;stroke-linecap:round;stroke-linejoin:round;stroke:rgb(0%,75.294118%,100%);stroke-opacity:0.470588;comp-op:multiply;stroke-miterlimit:10;" d="M 768.523438 224.503906 L 759.078125 232.171875 L 748.910156 242.394531 L 733.28125 258.824219 L 716.933594 277.082031 L 703.855469 292.417969 L 688.59375 307.753906 L 675.515625 321.996094 L 661.351562 335.5 L 649.359375 347.917969 L 639.1875 358.503906 L 629.375 367.265625 L 622.472656 373.839844 L 616.664062 377.492188 L 611.574219 379.683594 L 609.03125 380.777344 L 609.03125 377.859375 L 610.484375 369.460938 L 615.207031 355.585938 L 621.382812 339.519531 L 630.101562 322.726562 L 639.546875 304.101562 L 649.359375 284.023438 L 660.984375 263.207031 L 674.429688 241.664062 L 687.507812 221.949219 L 700.222656 204.054688 L 714.390625 185.800781 L 727.109375 167.546875 L 734.144531 157.691406 "/>
<path style="fill:none;stroke-width:17.047694;stroke-linecap:round;stroke-linejoin:round;stroke:rgb(0%,75.294118%,100%);stroke-opacity:0.470588;comp-op:multiply;stroke-miterlimit:10;" d="M 673.339844 144.179688 L 653.355469 162.433594 L 632.644531 183.246094 L 611.574219 205.519531 L 590.867188 228.523438 L 571.972656 250.792969 L 558.164062 270.511719 L 546.179688 285.847656 L 535.277344 297.894531 L 527.648438 306.289062 L 521.472656 310.675781 L 517.839844 312.863281 L 515.660156 313.59375 L 514.570312 313.957031 L 515.660156 309.578125 L 519.292969 298.257812 L 524.742188 282.921875 L 531.644531 264.304688 L 540.726562 243.488281 L 549.085938 221.585938 L 558.53125 198.582031 L 569.429688 175.578125 L 582.144531 152.210938 L 594.859375 129.207031 "/>
<path style="fill:none;stroke-width:17.047694;stroke-linecap:round;stroke-linejoin:round;stroke:rgb(0%,100%,0%);stroke-opacity:0.470588;comp-op:multiply;stroke-miterlimit:10;" d="M 43 432.675781 L 42.550781 433.363281 L 40.960938 435.179688 L 39.378906 437.226562 L 38.019531 439.503906 L 35.757812 443.371094 L 33.71875 447.238281 L 32.136719 451.332031 L 30.550781 456.792969 L 28.964844 462.9375 L 26.929688 469.535156 L 24.664062 476.128906 L 22.855469 482.046875 L 21.042969 487.507812 L 19.683594 491.828125 L 19.007812 495.011719 L 18.554688 497.515625 L 18.777344 498.882812 L 18.777344 499.5625 L 19.457031 499.5625 L 21.945312 498.652344 L 25.117188 495.242188 L 28.289062 489.328125 L 32.359375 481.820312 L 37.792969 474.082031 L 42.773438 466.347656 L 47.527344 459.070312 L 52.734375 451.789062 L 57.261719 444.964844 L 61.789062 438.367188 L 67.222656 432.449219 L 70.84375 428.585938 L 74.015625 425.398438 L 77.636719 423.121094 L 80.128906 421.984375 L 81.710938 421.300781 L 83.070312 421.074219 L 83.75 420.847656 L 84.65625 422.441406 L 85.558594 427.445312 L 84.878906 434.5 L 82.84375 442.460938 L 79.675781 452.242188 L 76.277344 462.253906 L 73.5625 471.808594 L 70.84375 481.136719 L 67.902344 489.554688 L 65.414062 497.972656 L 63.148438 505.476562 L 61.335938 512.304688 L 60.65625 517.992188 L 60.433594 521.632812 L 60.203125 524.359375 L 60.65625 526.863281 L 61.335938 529.140625 L 62.242188 530.277344 L 64.28125 531.1875 L 67.675781 531.1875 L 71.75 529.59375 L 77.183594 526.410156 L 82.84375 521.40625 L 88.730469 515.488281 L 95.292969 508.890625 L 101.632812 501.839844 L 108.652344 494.332031 L 114.988281 487.28125 L 121.101562 480.226562 L 126.984375 473.402344 L 132.648438 467.257812 L 138.53125 461.570312 L 142.605469 457.703125 L 145.320312 455.199219 L 148.71875 453.382812 L 151.886719 452.015625 L 154.378906 451.332031 L 155.734375 451.332031 L 157.09375 451.789062 L 158.90625 453.609375 L 160.492188 457.703125 L 161.394531 463.164062 L 161.394531 470.671875 L 160.714844 479.769531 L 159.582031 489.097656 L 157.773438 499.335938 L 155.734375 510.027344 L 154.152344 520.265625 L 152.566406 530.046875 L 151.210938 540.0625 L 150.757812 548.25 L 150.980469 554.390625 L 151.660156 558.714844 L 152.566406 560.992188 L 154.152344 562.808594 L 156.191406 564.402344 L 159.582031 564.859375 L 165.015625 564.632812 L 169.996094 562.128906 L 176.109375 557.351562 L 184.035156 550.527344 L 192.636719 542.335938 L 200.785156 533.917969 L 208.933594 524.589844 L 217.761719 515.261719 L 225.683594 506.617188 L 233.835938 497.972656 L 242.210938 489.328125 L 250.8125 479.769531 L 258.511719 471.582031 L 265.753906 464.074219 L 273.222656 456.109375 L 280.242188 448.832031 L 285.902344 443.144531 L 291.335938 438.820312 L 296.769531 436.089844 L 300.617188 434.269531 L 303.785156 432.90625 L 306.277344 432.222656 L 307.859375 432.222656 L 310.125 432.90625 L 312.160156 434.042969 L 313.292969 436.316406 L 314.425781 441.550781 L 314.652344 448.605469 L 313.746094 457.246094 L 312.160156 467.03125 L 310.351562 476.359375 L 308.089844 486.140625 L 306.730469 495.695312 L 306.277344 502.976562 L 306.050781 508.664062 L 306.277344 514.125 L 306.730469 518.675781 L 307.859375 522.085938 L 309.445312 525.042969 L 311.710938 527.773438 L 314.199219 530.046875 L 317.140625 531.871094 L 322.121094 532.324219 L 328.234375 531.1875 L 334.574219 528.683594 L 340.910156 525.042969 L 348.605469 518.675781 L 357.890625 510.253906 L 367.171875 501.15625 L 376.679688 491.144531 L 385.960938 480.453125 L 396.144531 469.988281 L 406.558594 459.976562 L 416.070312 449.96875 L 425.121094 441.777344 L 433.726562 434.726562 L 440.96875 429.265625 L 447.308594 425.625 L 453.875 423.121094 L 457.949219 421.757812 L 461.117188 421.300781 L 465.871094 421.53125 L 468.8125 422.210938 L 470.851562 423.578125 L 473.113281 427.898438 L 474.246094 433.589844 L 474.019531 440.867188 L 471.984375 449.742188 L 468.359375 459.523438 L 464.738281 470.898438 L 461.34375 482.957031 L 457.949219 494.105469 L 454.328125 503.433594 L 451.382812 512.304688 L 449.34375 519.582031 L 448.441406 524.816406 L 447.988281 529.367188 L 447.761719 532.097656 L 447.988281 533.460938 L 448.664062 534.824219 L 450.929688 535.964844 L 455.007812 536.648438 L 459.988281 535.738281 L 466.324219 532.324219 L 473.113281 528 L 480.359375 522.542969 L 488.960938 515.71875 L 497.789062 507.980469 L 507.070312 500.472656 L 515.675781 492.96875 L 524.277344 485.457031 L 533.78125 477.953125 L 542.386719 471.125 L 550.535156 465.210938 L 557.554688 459.523438 L 564.347656 454.972656 L 570.683594 451.789062 L 574.984375 449.96875 L 578.378906 448.605469 L 581.777344 447.691406 L 584.039062 447.691406 L 585.398438 448.148438 L 586.753906 449.058594 L 587.433594 451.332031 L 586.980469 456.792969 L 584.492188 464.757812 L 580.871094 473.855469 L 576.570312 484.320312 L 571.136719 495.46875 L 566.15625 506.164062 L 561.628906 516.855469 L 557.324219 527.773438 L 553.476562 537.558594 L 550.988281 545.519531 L 549.628906 551.890625 L 548.953125 557.351562 L 548.722656 560.992188 L 548.953125 562.582031 L 549.402344 563.945312 L 551.441406 565.539062 L 555.289062 566.675781 L 560.269531 566.449219 L 567.515625 563.492188 L 575.890625 558.488281 L 584.71875 551.207031 L 595.359375 542.789062 L 605.773438 534.144531 L 616.636719 523.679688 L 627.730469 513.667969 L 639.050781 504.113281 L 650.820312 494.105469 L 660.78125 485.457031 L 670.289062 477.269531 L 680.476562 469.761719 L 689.078125 463.390625 L 696.550781 457.933594 L 702.660156 454.292969 L 707.414062 451.558594 L 712.394531 449.511719 L 715.5625 448.375 L 716.921875 448.148438 L 717.601562 448.148438 L 718.28125 448.375 L 719.183594 449.285156 L 719.863281 450.652344 L 720.089844 455.199219 L 718.734375 462.023438 L 714.882812 469.304688 L 710.582031 476.8125 L 706.28125 484.777344 L 701.074219 493.421875 L 696.09375 502.066406 L 691.792969 511.394531 L 687.492188 519.582031 L 683.417969 526.183594 L 680.929688 531.1875 L 679.796875 533.6875 L 679.117188 535.054688 L 678.890625 536.421875 L 678.664062 537.101562 L 679.117188 537.785156 L 681.15625 539.375 L 684.777344 540.289062 L 688.398438 540.515625 L 693.378906 539.605469 L 699.941406 537.558594 L 706.960938 533.6875 L 714.65625 529.140625 L 722.582031 524.589844 L 730.277344 519.128906 L 739.332031 512.757812 L 747.710938 506.84375 L 754.5 501.386719 L 761.292969 496.609375 L 767.175781 492.511719 "/>
<path style="fill:none;stroke-width:19.84;stroke-linecap:round;stroke-linejoin:round;stroke:rgb(0%,75.294118%,100%);stroke-opacity:0.470588;comp-op:multiply;stroke-miterlimit:10;" d="M 34.988281 355.746094 L 35.710938 355.019531 L 38.242188 351.75 L 42.21875 347.386719 L 45.835938 343.023438 L 49.089844 338.664062 L 51.261719 335.027344 L 53.070312 331.394531 L 55.601562 326.304688 L 58.496094 321.21875 L 65.003906 312.492188 L 68.257812 307.769531 L 70.429688 304.496094 L 72.597656 300.5 L 74.40625 296.863281 L 76.214844 292.867188 L 78.746094 287.777344 L 81.640625 283.417969 L 84.894531 279.417969 L 87.425781 276.875 L 90.320312 274.332031 L 92.851562 271.785156 L 93.574219 271.058594 L 94.660156 270.332031 L 95.382812 269.605469 L 96.46875 272.511719 L 97.554688 277.964844 L 97.191406 284.871094 L 95.746094 292.503906 L 93.9375 299.046875 L 92.128906 305.953125 L 89.960938 314.3125 L 88.152344 322.308594 L 86.703125 328.851562 L 85.621094 335.753906 L 84.894531 342.296875 L 84.535156 347.75 L 84.535156 351.75 L 84.894531 355.382812 L 85.257812 359.015625 L 85.621094 361.199219 L 86.703125 363.378906 L 87.789062 365.195312 L 88.875 366.648438 L 90.683594 368.105469 L 91.765625 368.46875 L 92.851562 368.832031 L 95.023438 368.46875 L 98.640625 367.015625 L 104.425781 363.378906 L 110.9375 358.289062 L 116 352.113281 L 119.976562 344.84375 L 124.679688 336.484375 L 131.550781 326.304688 L 138.785156 316.855469 L 144.207031 308.496094 L 150.355469 299.773438 L 157.953125 290.6875 L 163.738281 284.144531 L 166.632812 279.054688 L 169.886719 274.695312 L 173.503906 270.695312 L 177.480469 267.789062 L 179.652344 266.699219 L 180.738281 266.335938 L 181.460938 265.96875 L 182.183594 267.0625 L 182.183594 270.695312 L 180.375 277.601562 L 176.757812 287.414062 L 172.78125 298.320312 L 169.523438 308.859375 L 164.460938 320.492188 L 157.953125 331.757812 L 152.527344 341.570312 L 148.910156 350.292969 L 146.742188 357.199219 L 144.207031 364.105469 L 142.039062 370.285156 L 140.953125 374.28125 L 140.59375 376.828125 L 140.59375 380.097656 L 140.953125 381.1875 L 141.316406 382.277344 L 142.039062 383.007812 L 143.847656 384.097656 L 147.824219 384.097656 L 154.335938 382.277344 L 161.207031 378.28125 L 166.992188 372.101562 L 174.949219 364.46875 L 183.992188 355.382812 L 190.5 345.570312 L 199.179688 334.300781 L 208.585938 322.671875 L 216.902344 310.3125 L 227.03125 295.046875 L 236.070312 281.234375 L 245.472656 267.789062 L 254.515625 255.792969 L 261.386719 244.527344 L 268.621094 233.621094 L 275.855469 223.808594 L 280.917969 215.085938 L 284.535156 208.90625 L 288.148438 204.183594 L 290.320312 200.546875 L 291.765625 198.730469 L 292.128906 197.640625 L 290.683594 200.183594 L 285.617188 208.90625 L 278.746094 220.902344 L 270.789062 232.894531 L 263.558594 246.34375 L 255.960938 261.246094 L 246.921875 277.964844 L 238.242188 295.410156 L 229.921875 312.128906 L 222.328125 328.488281 L 216.179688 344.84375 L 210.03125 359.746094 L 203.882812 372.828125 L 199.179688 382.277344 L 197.375 387.367188 L 196.289062 389.910156 L 195.566406 392.09375 L 195.203125 393.183594 L 196.289062 393.546875 L 199.90625 392.820312 L 205.691406 389.183594 L 211.117188 382.644531 L 217.988281 373.191406 L 227.390625 360.472656 L 236.070312 347.023438 L 245.472656 332.121094 L 255.601562 314.3125 L 266.449219 294.683594 L 277.664062 274.332031 L 289.957031 252.886719 L 301.894531 232.894531 L 314.914062 213.996094 L 327.210938 195.820312 L 336.976562 179.464844 L 346.015625 164.925781 L 353.609375 152.207031 L 361.566406 139.847656 L 369.164062 129.308594 L 373.863281 120.585938 L 377.121094 114.769531 L 379.652344 110.042969 L 381.460938 106.410156 L 381.820312 105.320312 L 382.183594 104.230469 L 382.542969 103.140625 L 381.460938 105.683594 L 376.757812 114.40625 L 369.886719 125.308594 L 361.566406 137.304688 L 353.972656 150.753906 L 346.738281 164.925781 L 338.058594 182.375 L 329.378906 201.636719 L 319.253906 220.902344 L 310.574219 240.164062 L 304.425781 258.339844 L 297.914062 274.695312 L 291.40625 289.230469 L 287.066406 301.226562 L 284.535156 310.675781 L 281.640625 319.398438 L 279.46875 325.941406 L 277.300781 330.667969 L 275.855469 333.9375 L 275.128906 334.664062 L 278.023438 331.757812 L 283.808594 324.125 L 290.683594 313.585938 L 298.636719 301.226562 L 305.871094 287.414062 L 314.550781 271.058594 L 324.679688 254.339844 L 335.167969 236.894531 L 346.015625 218.355469 L 357.226562 199.820312 L 369.164062 180.554688 L 381.460938 163.109375 L 393.03125 146.753906 L 403.519531 129.671875 L 414.007812 115.496094 L 424.136719 102.046875 L 434.625 88.964844 L 442.21875 77.695312 L 449.089844 68.246094 L 456.683594 59.523438 L 461.75 53.34375 L 464.28125 50.4375 L 465.003906 49.347656 L 464.640625 52.253906 L 461.023438 59.523438 L 453.429688 71.152344 L 442.941406 85.691406 L 431.367188 100.59375 L 417.988281 117.675781 L 405.691406 136.578125 L 393.757812 155.113281 L 380.011719 174.378906 L 365.90625 194.730469 L 353.609375 215.449219 L 343.125 235.804688 L 333.71875 255.066406 L 323.953125 274.332031 L 314.550781 291.777344 L 308.765625 306.679688 L 303.703125 318.671875 L 299 328.125 L 295.746094 334.664062 L 293.9375 338.300781 L 293.214844 339.390625 L 296.832031 336.847656 L 302.617188 331.03125 L 308.402344 323.398438 L 316.722656 312.128906 L 325.039062 300.5 L 333.71875 287.050781 L 344.207031 270.332031 L 354.335938 254.339844 L 366.269531 238.347656 L 379.289062 220.175781 L 390.863281 202.363281 L 403.160156 184.917969 L 415.09375 168.199219 L 427.753906 150.753906 L 439.324219 134.398438 L 449.453125 120.222656 L 459.941406 106.046875 L 468.621094 94.414062 L 477.300781 83.875 L 484.894531 74.0625 L 489.957031 67.15625 L 494.296875 61.703125 L 498.277344 57.34375 L 500.085938 55.160156 L 500.085938 56.25 L 498.277344 61.339844 L 493.9375 72.246094 L 485.980469 86.054688 L 476.214844 99.867188 L 466.449219 115.496094 L 455.960938 132.941406 L 446.921875 150.027344 L 438.242188 167.472656 L 429.199219 186.007812 L 421.605469 204.546875 L 414.371094 221.992188 L 407.859375 238.347656 L 402.796875 253.976562 L 400.265625 268.515625 L 398.457031 281.601562 L 396.289062 293.230469 L 394.839844 304.132812 L 393.394531 313.949219 L 391.949219 321.21875 L 391.222656 327.03125 L 390.863281 331.03125 L 390.5 333.574219 L 390.140625 335.753906 L 390.140625 336.847656 L 391.222656 336.484375 L 395.5625 333.574219 L 402.074219 327.394531 L 409.667969 319.761719 L 417.625 309.222656 L 425.945312 297.230469 L 434.984375 285.597656 L 442.582031 275.421875 L 449.8125 264.878906 L 458.492188 253.25 L 466.089844 242.707031 L 473.683594 232.53125 L 481.640625 222.355469 L 487.066406 213.632812 L 490.320312 207.453125 L 493.9375 200.910156 L 497.191406 195.09375 L 498.636719 191.824219 L 499.363281 189.644531 L 499.722656 188.554688 L 497.554688 190.371094 L 489.957031 196.550781 L 478.746094 207.816406 L 468.980469 220.175781 L 458.492188 233.257812 L 448.003906 248.160156 L 438.242188 263.789062 L 428.476562 280.507812 L 419.796875 297.230469 L 410.03125 313.585938 L 402.796875 329.578125 L 397.371094 344.117188 L 392.308594 356.109375 L 387.246094 367.015625 L 383.269531 375.738281 L 380.734375 381.914062 L 379.289062 385.1875 L 378.929688 386.277344 L 380.375 383.734375 L 384.351562 376.101562 L 389.777344 367.742188 L 394.839844 357.5625 L 399.542969 345.933594 L 406.050781 332.847656 L 414.730469 317.582031 L 422.328125 303.769531 L 431.007812 288.867188 L 440.046875 272.148438 L 448.367188 256.15625 L 458.132812 239.4375 L 468.257812 221.992188 L 478.023438 203.816406 L 486.703125 188.1875 L 495.382812 172.921875 L 505.507812 156.203125 L 514.191406 140.9375 L 523.953125 125.671875 L 532.632812 111.136719 L 539.144531 98.777344 L 547.101562 86.417969 L 554.695312 74.789062 L 561.207031 63.519531 L 569.886719 52.253906 L 577.117188 43.894531 L 581.097656 36.625 L 585.796875 28.992188 L 591.945312 22.8125 L 597.371094 18.453125 L 600.265625 15.90625 L 601.710938 14.453125 L 602.433594 13.363281 L 602.433594 17.359375 L 598.09375 26.8125 L 590.863281 37.351562 L 583.265625 47.890625 L 573.503906 59.886719 L 564.097656 71.878906 L 554.695312 83.875 L 544.929688 95.871094 L 536.613281 107.5 L 527.570312 118.769531 L 520.335938 127.855469 L 515.636719 135.488281 L 510.933594 143.121094 L 506.957031 149.296875 L 504.0625 154.386719 L 502.253906 157.660156 L 501.167969 159.476562 L 500.808594 161.65625 L 500.445312 162.746094 L 501.53125 163.472656 L 504.0625 164.199219 L 508.042969 163.835938 L 516.359375 161.292969 L 526.125 156.566406 L 535.164062 150.027344 L 545.292969 141.664062 L 555.78125 133.304688 L 566.992188 124.21875 L 577.480469 115.132812 L 589.414062 105.320312 L 600.988281 95.140625 L 611.839844 85.691406 L 622.328125 76.605469 L 632.453125 68.972656 L 643.304688 60.25 L 653.066406 52.253906 L 662.832031 46.074219 L 669.703125 41.351562 L 680.554688 31.171875 L 685.257812 27.902344 L 688.511719 25.355469 L 689.234375 24.628906 L 688.511719 25.355469 L 684.53125 28.628906 L 679.109375 33.71875 L 670.789062 40.257812 L 660.300781 48.253906 L 650.898438 56.25 L 640.773438 63.15625 L 634.261719 68.246094 L 629.199219 73.699219 L 623.773438 78.785156 L 619.433594 82.058594 L 616.539062 84.238281 L 615.457031 84.601562 L 616.902344 84.964844 L 620.519531 84.238281 L 626.667969 81.332031 L 635.707031 76.605469 L 645.113281 71.515625 L 656.683594 66.066406 L 668.621094 58.796875 L 677.660156 51.890625 L 687.789062 45.710938 L 697.550781 39.53125 L 708.765625 32.988281 L 717.082031 27.902344 L 723.230469 23.902344 L 731.1875 19.90625 L 735.890625 17.359375 L 739.503906 15.179688 L 742.761719 13 L 744.929688 11.910156 L 747.101562 10.820312 L 748.183594 10.09375 L 744.929688 12.273438 L 737.695312 15.90625 L 731.1875 19.179688 L 723.230469 22.449219 L 712.019531 27.175781 L 701.890625 32.261719 L 691.402344 38.078125 L 679.46875 43.894531 L 666.449219 50.800781 L 649.453125 58.796875 L 636.070312 65.703125 L 623.050781 73.699219 L 610.390625 82.058594 L 598.09375 88.964844 L 584.351562 97.6875 L 572.417969 106.410156 L 560.84375 114.769531 L 549.632812 123.492188 L 540.230469 131.851562 L 529.378906 141.300781 L 519.253906 150.753906 L 510.210938 160.203125 L 500.445312 171.105469 L 491.40625 181.648438 L 482 192.1875 L 474.40625 201.273438 L 467.898438 210.722656 L 460.300781 221.265625 L 453.792969 231.441406 L 448.730469 240.164062 L 445.472656 247.796875 L 441.496094 256.519531 L 437.515625 265.242188 L 433.898438 272.875 L 429.921875 281.964844 L 426.667969 290.324219 L 421.605469 308.496094 L 419.070312 316.128906 L 415.816406 324.488281 L 412.925781 332.847656 L 410.753906 339.390625 L 408.945312 344.84375 L 407.859375 350.292969 L 407.5 353.929688 L 407.5 355.019531 L 408.222656 356.109375 L 409.308594 358.289062 L 411.476562 359.746094 L 414.007812 360.472656 L 417.988281 360.835938 L 424.496094 360.109375 L 432.816406 357.5625 L 439.6875 353.203125 L 447.28125 347.75 L 456.683594 342.296875 L 465.363281 337.574219 L 475.128906 331.394531 L 483.449219 325.578125 L 489.957031 321.945312 L 498.277344 317.945312 L 504.785156 315.402344 L 508.765625 313.949219 L 512.382812 312.128906 L 515.996094 310.675781 L 517.082031 310.3125 L 516.359375 313.222656 L 512.382812 321.582031 L 504.785156 331.757812 L 497.191406 339.753906 L 491.042969 347.75 L 483.449219 356.109375 L 476.214844 362.289062 L 470.066406 368.105469 L 465.003906 373.191406 L 461.023438 376.464844 L 458.132812 379.007812 L 456.324219 380.460938 L 455.238281 381.1875 L 457.769531 380.824219 L 462.472656 378.28125 L 468.621094 373.917969 L 477.300781 368.46875 L 484.894531 362.289062 L 492.128906 355.746094 L 501.167969 348.476562 L 508.042969 343.023438 L 515.996094 336.121094 L 525.761719 327.757812 L 532.273438 322.671875 L 538.058594 317.945312 L 544.929688 312.128906 L 550.71875 307.769531 L 553.972656 305.226562 L 556.140625 303.40625 L 558.3125 301.953125 L 560.121094 300.136719 L 561.207031 299.410156 L 560.84375 300.5 L 556.503906 306.316406 L 549.269531 315.039062 L 542.398438 323.761719 L 536.972656 331.394531 L 530.101562 339.027344 L 522.871094 347.023438 L 518.167969 353.566406 L 515.996094 356.835938 L 513.828125 360.472656 L 512.019531 364.105469 L 510.574219 367.742188 L 509.488281 371.011719 L 509.125 373.191406 L 509.125 374.28125 L 509.851562 375.375 L 510.574219 376.101562 L 513.464844 376.828125 L 518.890625 376.464844 L 525.402344 374.28125 L 530.101562 372.101562 L 533.71875 369.558594 L 541.3125 364.832031 L 549.996094 358.652344 L 555.78125 353.929688 L 562.652344 348.476562 L 570.609375 342.296875 L 576.394531 337.574219 L 580.375 333.574219 L 584.714844 329.578125 L 586.523438 327.394531 "/>
<path style="fill:none;stroke-width:19.84;stroke-linecap:round;stroke-linejoin:round;stroke:rgb(0%,75.294118%,100%);stroke-opacity:0.470588;comp-op:multiply;stroke-miterlimit:10;" d="M 341.675781 54.433594 L 340.953125 55.160156 L 339.144531 56.25 L 336.976562 57.34375 L 334.804688 58.433594 L 331.550781 60.976562 L 326.125 64.976562 L 320.699219 68.609375 L 316 71.878906 L 312.742188 74.0625 L 309.488281 76.242188 L 305.148438 79.148438 L 300.808594 82.058594 L 297.191406 83.875 L 296.105469 84.238281 L 297.914062 82.421875 L 301.53125 78.785156 L 304.785156 74.789062 L 309.488281 69.699219 L 316 64.246094 L 322.148438 58.433594 L 327.210938 52.980469 L 334.082031 47.164062 L 342.039062 40.984375 L 347.824219 36.261719 L 352.886719 31.535156 L 360.484375 26.8125 L 366.992188 23.175781 L 370.246094 20.996094 L 372.78125 19.542969 L 376.757812 17.722656 L 380.375 16.269531 L 381.460938 15.90625 "/>
</g>
</svg>
